# xmcd CD database file
#
# Track frame offsets:
#	150
#	8943
#	21966
#	31898
#	44941
#	57367
#	70400
#	89285
#	105639
#	119507
#	132740
#	145264
#	183596
#	202471
#
# Disc length: 2883 seconds
#
# Revision: 0
# Processed by: cddbd v1.5.2PL0 Copyright (c) Steve Scherf et al.
# Submitted via: CDex 1.70beta2
#
DISCID=e00b410e
DTITLE=Various Artist - Jazz from the Vaults CD2
DYEAR=2005
DGENRE=Jazz
TTITLE0=Art Tatum - Tiger Rag
TTITLE1=Charlie Parker - Ornithology (live)
TTITLE2=Dave Brubeck - Jeepers Creepers (live)
TTITLE3=Duke Ellington - Chelsea Bridge
TTITLE4=Ella Fitzgerald - Shake Down the Stars
TTITLE5=Lester Young - Just Jivin' Around
TTITLE6=Louis Armstrong - Black and Blue (live)
TTITLE7=Oscar Peterson - 52nd Street Theme
TTITLE8=Stan Getz - My Romance
TTITLE9=Theloniuos Monk - Straight No Chaser
TTITLE10=Benny Goodman - After You've Gone
TTITLE11=Charles Mingus - Spur Of The Moment
TTITLE12=Earl Hines - Sophisticated Lady
TTITLE13=Jimmie Lunnceford - Four Or Five Times
EXTD=YEAR: 2005
EXTT0=
EXTT1=
EXTT2=
EXTT3=
EXTT4=
EXTT5=
EXTT6=
EXTT7=
EXTT8=
EXTT9=
EXTT10=
EXTT11=
EXTT12=
EXTT13=
PLAYORDER=
